HIERARCHY
ROOT Hips
{
 OFFSET 0.000000 0.000000 0.000000
 CHANNELS 6 Xposition Yposition Zposition Yrotation Xrotation Zrotation
 JOINT Chest
 {
  OFFSET 0.000000 9.585900 0.002600
  CHANNELS 3 Yrotation Xrotation Zrotation
  JOINT Chest2
  {
   OFFSET 0.000000 9.601200 -0.005300
   CHANNELS 3 Yrotation Xrotation Zrotation
   JOINT Chest3
   {
    OFFSET 0.000000 9.561800 0.000000
    CHANNELS 3 Yrotation Xrotation Zrotation
    JOINT Chest4
    {
     OFFSET 0.000000 9.552100 0.000000
     CHANNELS 3 Yrotation Xrotation Zrotation
     JOINT Neck
     {
      OFFSET 0.000000 14.453000 0.000000
      CHANNELS 3 Yrotation Xrotation Zrotation
      JOINT Head
      {
       OFFSET 0.000000 8.936500 -0.011300
       CHANNELS 3 Yrotation Xrotation Zrotation
       End Site
       {
        OFFSET 0.000000 17.073600 -0.006000
       }
      }
     }
     JOINT RightCollar
     {
      OFFSET -2.921100 9.558500 0.000000
      CHANNELS 3 Yrotation Xrotation Zrotation
      JOINT RightShoulder
      {
       OFFSET -13.519700 0.000000 0.000000
       CHANNELS 3 Yrotation Xrotation Zrotation
       JOINT RightElbow
       {
        OFFSET 0.000000 -29.696600 0.000000
        CHANNELS 3 Yrotation Xrotation Zrotation
        JOINT RightWrist
        {
         OFFSET 0.000000 -24.004700 0.000000
         CHANNELS 3 Yrotation Xrotation Zrotation
         End Site
         {
          OFFSET 0.000000 -17.728500 0.000000
         }
        }
       }
      }
     }
     JOINT LeftCollar
     {
      OFFSET 2.921100 9.558500 0.000000
      CHANNELS 3 Yrotation Xrotation Zrotation
      JOINT LeftShoulder
      {
       OFFSET 13.519700 0.000000 0.000000
       CHANNELS 3 Yrotation Xrotation Zrotation
       JOINT LeftElbow
       {
        OFFSET 0.000000 -29.696600 0.000000
        CHANNELS 3 Yrotation Xrotation Zrotation
        JOINT LeftWrist
        {
         OFFSET 0.000000 -24.004700 0.000000
         CHANNELS 3 Yrotation Xrotation Zrotation
         End Site
         {
          OFFSET 0.000000 -17.728500 0.000000
         }
        }
       }
      }
     }
    }
   }
  }
 }
 JOINT RightHip
 {
  OFFSET -7.771700 -0.012900 -0.001300
  CHANNELS 3 Yrotation Xrotation Zrotation
  JOINT RightKnee
  {
   OFFSET 0.000000 -40.869800 0.001200
   CHANNELS 3 Yrotation Xrotation Zrotation
   JOINT RightAnkle
   {
    OFFSET 0.000000 -39.717900 0.002100
    CHANNELS 3 Yrotation Xrotation Zrotation
    JOINT RightToe
    {
     OFFSET 0.000000 -4.965400 11.033500
     CHANNELS 3 Yrotation Xrotation Zrotation
     End Site
     {
      OFFSET 0.000000 -1.423100 5.872300
     }
    }
   }
  }
 }
 JOINT LeftHip
 {
  OFFSET 7.771700 -0.012900 -0.001300
  CHANNELS 3 Yrotation Xrotation Zrotation
  JOINT LeftKnee
  {
   OFFSET 0.000000 -40.869800 0.001200
   CHANNELS 3 Yrotation Xrotation Zrotation
   JOINT LeftAnkle
   {
    OFFSET 0.000000 -39.717900 0.002100
    CHANNELS 3 Yrotation Xrotation Zrotation
    JOINT LeftToe
    {
     OFFSET 0.000000 -4.965400 11.033500
     CHANNELS 3 Yrotation Xrotation Zrotation
     End Site
     {
      OFFSET 0.000000 -1.423100 5.872300
     }
    }
   }
  }
 }
}
MOTION
Frames: 5
Frame Time: 0.008333
-36.689204 62.048298 12.868719 177.061066 -50.935752 -0.948380 3.658161 27.169159 -0.258439 0.556408 4.630898 -0.099305 0.889857 7.378081 -0.092086 2.714389 21.990703 0.077122 -2.742995 14.869962 2.181926 -5.949576 -8.007685 5.108524 8.345748 4.714058 5.049212 0.621432 -16.128684 -17.905937 -91.750529 -60.826573 130.614583 15.652395 7.103048 13.795507 -9.439338 3.176370 -0.558927 -4.598536 -11.233132 15.864992 106.530083 -81.945752 -123.483270 11.481785 -3.918492 -3.429122 3.385332 -16.015978 -5.756350 -1.545256 61.382150 -5.266562 1.418180 -7.834663 10.324501 0.215678 -0.567254 0.062285 -3.877702 -13.125798 2.177481 26.900508 76.600596 27.724474 0.661273 -11.985064 -3.956451 0.209550 0.693857 0.079524
-36.691541 62.046176 12.875961 177.048431 -50.957963 -0.964080 3.676746 27.162056 -0.258243 0.550069 4.595866 -0.131708 0.889870 7.373056 -0.101112 2.737416 22.020424 0.100299 -2.779725 14.844116 2.190777 -5.972295 -7.981791 5.202311 8.402183 4.706564 5.063168 0.959575 -16.773003 -18.449481 -91.639859 -60.935916 130.420816 15.908160 7.335498 14.335765 -9.393587 3.089492 -0.611968 -4.769487 -11.280741 15.888364 103.603172 -81.976300 -120.623754 11.586048 -3.503660 -2.259845 3.364466 -15.996140 -5.745774 -1.567050 61.360044 -5.268998 1.449111 -7.820612 10.313556 0.219362 -0.551415 0.059815 -3.886051 -13.103021 2.184496 26.932056 76.596621 27.765247 0.676001 -11.996264 -3.970702 0.208508 0.705331 0.080997
-36.697177 62.048137 12.880195 177.057024 -51.013483 -0.977897 3.669059 27.157060 -0.303536 0.550461 4.588998 -0.137511 0.890020 7.368153 -0.109219 2.759715 22.052472 0.123072 -2.778294 14.848684 2.216243 -6.001772 -7.997073 5.285786 8.456968 4.704537 5.075174 1.342816 -17.459810 -19.059877 -91.609238 -61.078127 130.269709 16.205674 7.584544 14.894885 -9.344568 3.001597 -0.666510 -4.962879 -11.336759 15.921462 100.455245 -81.999357 -117.542897 11.688978 -3.054880 -1.028978 3.337271 -15.936389 -5.746646 -1.561221 61.341475 -5.258058 1.455069 -7.814221 10.312334 0.222394 -0.536987 0.058316 -3.905975 -13.047932 2.150370 27.036381 76.581803 27.882781 0.717800 -11.990748 -3.978193 0.168931 0.701426 0.070275
-36.698977 62.055905 12.880690 177.095306 -51.114304 -1.038771 3.652793 27.141262 -0.360326 0.559846 4.632899 -0.100006 0.890036 7.364056 -0.116704 2.719017 21.992539 0.024450 -2.728660 14.897464 2.316849 -5.967480 -7.932412 5.333672 8.593110 4.751544 5.160674 1.740291 -18.157163 -19.706054 -91.661284 -61.243306 130.164107 16.546546 7.853397 15.483683 -9.231280 3.023169 -0.642220 -5.181159 -11.403563 15.968550 97.042790 -82.002185 -114.193563 11.779872 -2.575388 0.229506 3.287273 -15.821146 -5.716836 -1.553032 61.314833 -5.242429 1.455804 -7.806022 10.316996 0.222393 -0.529083 0.058862 -3.936777 -12.942436 2.163047 27.017358 76.579551 27.877829 0.715727 -11.981705 -3.978033 0.184578 0.690901 0.064804
-36.704113 62.060127 12.884507 177.130287 -51.189741 -1.080599 3.634702 27.128332 -0.402367 0.562253 4.647572 -0.091394 0.889146 7.360643 -0.123923 2.702879 21.969831 -0.021644 -2.704466 14.906130 2.377760 -5.944076 -7.913786 5.438073 8.713148 4.707726 5.149944 2.143467 -18.838939 -20.375612 -91.782143 -61.426831 130.095071 16.920552 8.147721 16.106066 -9.139711 3.003986 -0.658659 -5.425504 -11.479373 16.027001 93.348072 -81.983725 -110.560422 11.854502 -2.082832 1.494975 3.232287 -15.732756 -5.711107 -1.494265 61.288263 -5.190841 1.462679 -7.814156 10.319455 0.209408 -0.510919 0.050303 -3.961794 -12.866784 2.159088 27.014795 76.576003 27.886211 0.717362 -11.976867 -3.988528 0.197994 0.688839 0.070306
